HIERARCHY
ROOT Hips
{
	OFFSET -3.958830 18.904000 13.208200
	CHANNELS 6 Xposition Yposition Zposition Zrotation Yrotation Xrotation 
	JOINT LHipJoint
	{
		OFFSET 0.000000 0.000000 0.000000
		CHANNELS 3 Zrotation Yrotation Xrotation
		JOINT LeftUpLeg
		{
			OFFSET 1.800000 -1.400000 0.085000
			CHANNELS 3 Zrotation Yrotation Xrotation
			JOINT LeftLeg
			{
				OFFSET 2.215000 -6.000000 0.000000
				CHANNELS 3 Zrotation Yrotation Xrotation
				JOINT LeftFoot
				{
					OFFSET 2.500000 -6.900000 0.000000
					CHANNELS 3 Zrotation Yrotation Xrotation
					JOINT LeftToeBase
					{
						OFFSET 0.200000 -0.500000 1.950000
						CHANNELS 3 Zrotation Yrotation Xrotation
						End Site
						{
							OFFSET 0.000000 0.000000 0.000000
						}
					}
				}
			}
		}
	}
	JOINT RHipJoint
	{
		OFFSET 0.000000 0.000000 0.000000
		CHANNELS 3 Zrotation Yrotation Xrotation
		JOINT RightUpLeg
		{
			OFFSET -1.800000 -1.400000 0.085000
			CHANNELS 3 Zrotation Yrotation Xrotation
			JOINT RightLeg
			{
				OFFSET -2.215000 -6.000000 0.000000
				CHANNELS 3 Zrotation Yrotation Xrotation
				JOINT RightFoot
				{
					OFFSET -2.500000 -6.900000 0.000000
					CHANNELS 3 Zrotation Yrotation Xrotation
					JOINT RightToeBase
					{
						OFFSET -0.200000 -0.500000 1.950000
						CHANNELS 3 Zrotation Yrotation Xrotation
						End Site
						{
							OFFSET 0.000000 0.000000 0.000000
						}
					}
				}
			}
		}
	}
	JOINT LowerBack
	{
		OFFSET 0.000000 0.000000 0.000000
		CHANNELS 3 Zrotation Yrotation Xrotation
		JOINT Spine
		{
			OFFSET -0.087000 1.940000 -0.288900
			CHANNELS 3 Zrotation Yrotation Xrotation
			JOINT Spine1
			{
				OFFSET 0.000000 1.950000 0.060000
				CHANNELS 3 Zrotation Yrotation Xrotation
				JOINT Neck
				{
					OFFSET 0.000000 0.000000 0.000000
					CHANNELS 3 Zrotation Yrotation Xrotation
					JOINT Neck1
					{
						OFFSET 0.000000 1.600000 0.340000
						CHANNELS 3 Zrotation Yrotation Xrotation
						JOINT Head
						{
							OFFSET 0.000000 1.667000 -0.240000
							CHANNELS 3 Zrotation Yrotation Xrotation
							End Site
							{
								OFFSET 0.000000 0.000000 0.000000
							}
						}
					}
				}
				JOINT LeftShoulder
				{
					OFFSET 0.000000 0.000000 0.000000
					CHANNELS 3 Zrotation Yrotation Xrotation
					JOINT LeftArm
					{
						OFFSET 2.700000 1.550000 -0.730000
						CHANNELS 3 Zrotation Yrotation Xrotation
						JOINT LeftForeArm
						{
							OFFSET 5.450000 0.000000 0.000000
							CHANNELS 3 Zrotation Yrotation Xrotation
							JOINT LeftHand
							{
								OFFSET 3.450000 0.000000 0.000000
								CHANNELS 3 Zrotation Yrotation Xrotation
								JOINT LeftHandIndex1
								{
									OFFSET 0.750000 0.000000 0.000000
									CHANNELS 3 Zrotation Yrotation Xrotation
									End Site
									{
										OFFSET 0.000000 0.000000 0.000000
									}
								}
							}
						}
					}
				}
				JOINT RightShoulder
				{
					OFFSET 0.000000 0.000000 0.000000
					CHANNELS 3 Zrotation Yrotation Xrotation
					JOINT RightArm
					{
						OFFSET -2.700000 1.550000 -0.730000
						CHANNELS 3 Zrotation Yrotation Xrotation
						JOINT RightForeArm
						{
							OFFSET -5.450000 0.000000 0.000000
							CHANNELS 3 Zrotation Yrotation Xrotation
							JOINT RightHand
							{
								OFFSET -3.450000 0.000000 0.000000
								CHANNELS 3 Zrotation Yrotation Xrotation
								JOINT RightHandIndex1
								{
									OFFSET -0.750000 0.000000 0.000000
									CHANNELS 3 Zrotation Yrotation Xrotation
									End Site
									{
										OFFSET 0.000000 0.000000 0.000000
									}
								}
							}
						}
					}
				}
			}
		}
	}
}
MOTION
Frames: 7
Frame Time: 0.016667
0.188670 18.041830 -2.069540 -14.550360 18.387343 0.918025 -15.172072 12.873069 3.156276 1.323130 -3.624193 -28.412794 3.866449 4.793368 30.388750 -0.267382 4.281358 2.908458 0.447730 0.399820 0.280760 18.180336 -11.198950 2.989266 -14.861313 6.132199 -20.075554 10.616085 -13.944186 48.724961 -1.014322 -8.330748 1.391440 0.311690 -0.006000 0.061180 -3.906768 -0.411451 -7.867136 14.864121 4.326253 21.206878 6.360430 5.457196 6.699745 1.178205 2.552211 -8.946372 4.069610 -7.169012 28.025712 3.081650 -6.362910 -14.231260 -9.983354 -8.898746 5.863840 -7.372019 10.308964 -2.071051 -28.579719 -51.438180 12.520858 -3.436830 3.693836 0.186000 -0.016700 0.037010 0.113600 7.444993 11.810508 1.534555 5.109589 11.687320 -8.549797 -16.480551 82.217929 -13.040059 1.935083 -1.586172 -0.025370 0.152660 -0.131090 -0.080200 
0.174430 17.988290 -2.052100 -14.137162 18.048799 1.886227 -15.159579 12.942194 3.176684 1.177821 -3.480939 -27.525450 2.995391 4.753444 28.161344 -0.322868 3.998250 3.034855 0.431110 0.381720 0.255150 18.146953 -11.530347 2.722936 -14.101517 4.594565 -18.555760 9.192120 -11.006379 40.652674 -0.630716 -6.811498 1.890950 0.320460 0.041770 0.061920 -3.890645 -0.105918 -7.635987 13.324822 5.309119 18.957596 7.251230 5.892093 7.084280 1.000576 2.956463 -8.761947 4.812758 -7.746126 27.520617 2.927970 -6.845490 -12.862690 -9.883280 -8.664844 5.702664 -6.068595 10.187772 -1.415990 -30.837097 -52.844538 14.141274 -3.481185 3.737506 0.147720 0.022260 -0.003690 0.123410 7.823460 11.340482 1.418275 4.102262 12.408560 -7.339300 -11.999414 79.460156 -8.535573 1.969550 -1.678840 -0.040190 0.164820 -0.117890 -0.068660 
0.143500 17.858190 -1.989950 -13.705907 15.998683 4.052278 -15.116980 12.854012 3.091451 1.586028 -3.016273 -25.775161 0.276113 4.893071 22.914884 -0.415444 3.466692 3.277985 0.407750 0.366420 0.197480 18.168233 -11.900184 2.476420 -13.009595 2.528929 -16.362806 7.291971 -7.380338 27.504014 -0.187964 -4.822524 2.614693 0.348040 0.137160 0.065900 -3.916086 0.568301 -7.217348 10.421778 7.282546 13.949128 8.875225 6.713966 7.971059 0.561295 3.322278 -8.604619 5.724303 -8.031995 25.964897 2.471010 -7.165760 -10.046690 -8.745139 -8.066254 5.583749 -5.273098 9.727656 -0.436320 -34.614373 -53.415834 16.487677 -3.548170 3.826742 0.056010 0.106830 -0.088070 0.153540 7.852388 10.467469 1.360285 3.986253 13.545406 -5.392804 -6.712245 76.420042 -3.897544 1.986378 -1.814178 -0.060770 0.177140 -0.102550 -0.038910 
0.106080 17.687970 -1.961710 -12.953576 14.536473 6.562093 -15.087090 12.518213 2.915103 1.720555 -2.758180 -23.734019 -2.254795 4.792300 17.641295 -0.477250 3.099716 3.477467 0.376970 0.347430 0.122500 18.261146 -11.875454 2.538032 -12.710108 1.306481 -14.890593 6.409974 -5.001276 14.560934 0.023112 -3.740194 3.058779 0.380700 0.253270 0.074870 -3.995942 1.177125 -6.892277 7.479055 9.038588 8.968744 9.982083 7.533809 8.895160 0.087780 3.435482 -8.562155 6.329520 -8.364058 23.716060 1.953430 -7.688010 -7.204000 -6.965778 -7.443077 5.452932 -4.736025 8.441066 0.658220 -40.739037 -54.997022 20.577877 -3.639150 3.928186 -0.057290 0.209810 -0.192320 0.183810 7.296141 9.613486 1.544076 4.609491 13.678359 -3.992037 -4.560571 73.150519 -2.015151 1.963383 -1.918604 -0.081780 0.190470 -0.075890 -0.001420 
0.086060 17.525860 -1.940120 -12.550141 15.549323 7.229904 -15.088696 12.367124 2.723924 1.857815 -2.458822 -21.252953 -2.841200 4.418853 14.244228 -0.475737 2.915242 3.595634 0.333810 0.302120 0.064680 18.312784 -11.701609 2.716181 -12.558294 0.840949 -12.274516 5.544390 -3.895770 6.937563 0.016072 -3.646713 3.152345 0.363350 0.310170 0.072810 -4.044920 1.261347 -6.817652 6.391459 9.402991 6.517437 10.497521 7.590320 9.480233 -0.309050 3.162131 -8.703234 5.873062 -9.023175 23.473028 1.927500 -8.788930 -5.650990 -5.928189 -7.123602 5.454103 -5.033297 6.827917 1.507035 -47.949362 -59.195572 26.893221 -3.685788 3.973653 -0.104960 0.245550 -0.242200 0.194670 7.194600 9.174654 2.015409 4.899950 12.001190 -3.637000 -2.793108 71.962648 -0.810834 1.972483 -1.957503 -0.090600 0.196790 -0.052640 0.025160 
0.078790 17.380830 -1.940330 -12.401876 17.023557 6.851861 -15.097184 12.462661 2.677155 1.834610 -2.262329 -19.499982 -2.326813 4.082967 12.726291 -0.450960 2.822272 3.658120 0.297410 0.258420 0.026180 18.302316 -11.724354 2.693767 -12.152163 0.612633 -10.973104 3.995387 -3.629528 6.293244 0.011840 -3.644048 3.183554 0.328920 0.327650 0.060380 -4.047804 1.119037 -6.809543 6.534360 9.002944 6.099068 10.161320 7.330994 9.714880 -0.548657 2.585836 -8.888834 4.724845 -9.301038 24.069815 2.514870 -9.780920 -5.016180 -5.890088 -6.559414 5.664700 -6.091924 5.994499 2.402124 -60.111657 -66.236310 38.955325 -3.731127 3.969864 -0.111020 0.238710 -0.257050 0.198510 7.638644 8.743359 2.456633 5.112648 9.691894 -3.508391 2.020731 75.625343 2.007172 2.010722 -2.014199 -0.093580 0.199390 -0.040990 0.042030 
0.076990 17.268090 -1.940020 -12.284267 18.664630 5.603311 -15.128012 12.795946 2.728062 1.692221 -2.052536 -18.080390 -1.401340 3.970728 13.198622 -0.440577 2.862135 3.641373 0.294060 0.247710 0.029740 18.213698 -11.939068 2.459100 -11.775069 0.409723 -10.875624 2.900783 -4.140509 11.887482 0.016721 -3.669230 3.164334 0.309070 0.305470 0.053100 -3.960671 0.780242 -6.780721 6.942541 8.098141 7.282609 9.393383 6.841703 9.773700 -0.532510 2.008233 -9.012047 3.537895 -9.218266 24.726096 3.360330 -10.183970 -6.218000 -7.474543 -5.550001 5.927133 -8.890902 5.753880 3.244009 -83.825247 -75.201424 63.250301 -3.948104 3.416228 -0.067940 0.203020 -0.230300 0.190270 9.109141 8.019791 2.804032 5.783289 7.711646 -3.104362 14.854602 81.073150 11.268974 2.074943 -2.086354 -0.093590 0.208830 -0.035630 0.036050 
